<?xml version="1.0" encoding="iso-8859-1"?>
<!-- Generator: Adobe Illustrator 16.0.0, SVG Export Plug-In . SVG Version: 6.00 Build 0)  -->
<!DOCTYPE svg PUBLIC "-//W3C//DTD SVG 1.1//EN" "http://www.w3.org/Graphics/SVG/1.1/DTD/svg11.dtd">
<svg version="1.1" id="Capa_1" xmlns="http://www.w3.org/2000/svg" xmlns:xlink="http://www.w3.org/1999/xlink" x="0px" y="0px"
	 width="100px" height="50px" viewBox="0 0 575.275 575.275" style="enable-background:new 0 0 575.275 575.275;"
	 xml:space="preserve">
<g>
	<path d="M572.754,274.721l-49.4-47.907c-0.942-0.918-2.13-1.566-3.427-1.849L94.415,127.779c0,0-2.252-0.587-4.553,0.453
		c-2.167,0.967-3.183,2.729-3.183,2.729L1.146,263.864c-1.555,2.423-1.53,5.557,0.085,7.956c1.359,2.02,3.623,3.206,6.01,3.206
		c0.429,0,0.869-0.049,1.31-0.134l8.262-1.53v120.123c0,3.134,2.02,5.912,5.006,6.879l144.885,46.953c0,0,1.518,0.367,2.24,0.343
		c0.649-0.024,1.322-0.123,1.322-0.123l234.787-43.354l61.996,8.372c0,0,0.514,0.062,0.967,0.062c0.808,0,1.665-0.196,1.665-0.196
		l89.743-21.126c3.28-0.759,5.582-3.685,5.582-7.038v-97.101l2.252,0.233c0.257,0.024,0.514,0.049,0.759,0.049
		c0.036,0,0.073,0,0.11-0.013c3.953-0.036,7.147-3.268,7.147-7.233C575.275,278.025,574.297,276.055,572.754,274.721z
		 M68.491,364.184c0,0.71-0.306,1.383-0.857,1.836c-0.44,0.367-0.991,0.562-1.554,0.562c-0.135,0-0.27-0.012-0.416-0.036
		l-29.413-5.251c-1.15-0.208-1.983-1.212-1.983-2.362v-38.654c0-0.648,0.27-1.273,0.734-1.738c0.478-0.453,1.114-0.697,1.763-0.673
		l29.413,0.954c1.297,0.05,2.326,1.114,2.326,2.412v42.95H68.491z M139.434,376.827c0,0.722-0.306,1.396-0.856,1.849
		c-0.441,0.367-0.992,0.562-1.555,0.562c-0.135,0-0.269-0.012-0.416-0.036l-44.211-7.896c-1.15-0.208-1.983-1.212-1.983-2.374
		v-46.818c0-0.648,0.27-1.272,0.734-1.738c0.465-0.452,1.114-0.697,1.763-0.673l44.211,1.444c1.297,0.049,2.326,1.113,2.326,2.411
		v53.269H139.434z M293.303,370.132c0,1.236-0.942,2.276-2.179,2.387l-81.053,8.25c-0.085,0.012-0.171,0.012-0.257,0.012
		c-0.588,0-1.175-0.22-1.616-0.624c-0.502-0.453-0.783-1.113-0.783-1.787v-54.517c0-1.31,1.052-2.375,2.362-2.411l81.053-1.506
		c0.637-0.012,1.261,0.245,1.738,0.697c0.465,0.441,0.734,1.065,0.734,1.727V370.132z M383.23,360.988
		c0,1.236-0.942,2.265-2.179,2.387l-56.464,5.753c-0.085,0.013-0.171,0.013-0.244,0.013c-0.6,0-1.175-0.221-1.616-0.624
		c-0.514-0.453-0.795-1.114-0.795-1.8v-45.019c0-1.31,1.053-2.387,2.362-2.411l56.475-1.053c0.649-0.013,1.273,0.245,1.738,0.697
		c0.465,0.453,0.723,1.077,0.723,1.727V360.988L383.23,360.988z M468.775,262.199l-63.146-6.683L172.861,230.89l-62.608-84.64
		l404.483,92.375l32.901,31.91L468.775,262.199z M513.011,362.567c0,1.212-0.881,2.228-2.068,2.387l-21.628,3.097
		c-0.11,0.013-0.221,0.024-0.331,0.024c-0.587,0-1.15-0.208-1.591-0.587c-0.526-0.466-0.82-1.126-0.82-1.824v-31.358
		c0-1.273,0.991-2.326,2.265-2.399l21.628-1.297c0.673-0.037,1.31,0.208,1.8,0.66c0.477,0.453,0.759,1.09,0.759,1.763v29.535
		H513.011z M549.584,357.329c0,1.199-0.869,2.228-2.068,2.387l-17.295,2.473c-0.123,0.012-0.233,0.024-0.343,0.024
		c-0.575,0-1.139-0.208-1.579-0.588c-0.526-0.465-0.833-1.126-0.833-1.824v-27.943c0-1.285,1.004-2.338,2.277-2.411l17.295-1.041
		c0.673-0.036,1.31,0.196,1.799,0.649c0.478,0.465,0.76,1.102,0.76,1.763v26.512H549.584z"/>
</g>
<g>
</g>
<g>
</g>
<g>
</g>
<g>
</g>
<g>
</g>
<g>
</g>
<g>
</g>
<g>
</g>
<g>
</g>
<g>
</g>
<g>
</g>
<g>
</g>
<g>
</g>
<g>
</g>
<g>
</g>
</svg>
